<?xml version="1.0" standalone="no"?>
<!DOCTYPE svg PUBLIC "-//W3C//DTD SVG 20010904//EN"
 "http://www.w3.org/TR/2001/REC-SVG-20010904/DTD/svg10.dtd">
<svg version="1.0" xmlns="http://www.w3.org/2000/svg"
 width="200" height="200" viewBox="-80 -80 1800 1800"
 preserveAspectRatio="xMidYMid meet">
<metadata>
Created by potrace 1.16, written by Peter Selinger 2001-2019
</metadata>
<g transform="translate(0.000000,1640.000000) scale(0.100000,-0.100000)"
fill="#d82828" stroke="none">
<path d="M7965 16384 c-497 -42 -935 -176 -1245 -381 -132 -88 -286 -236 -343
-329 -131 -217 -127 -523 10 -726 181 -269 606 -510 1073 -608 300 -63 409
-75 725 -74 310 0 389 8 710 70 463 90 922 343 1104 608 78 112 131 276 131
401 0 93 -27 204 -73 295 -33 68 -62 106 -142 188 -266 277 -688 458 -1240
533 -146 19 -581 33 -710 23z M5079 15707 c-117 -41 -173 -90 -242 -217 -102
-185 -84 -406 54 -670 124 -236 398 -533 574 -621 178 -89 278 -65 349 84 52
110 61 162 60 347 0 140 -4 184 -27 291 -53 250 -142 472 -242 605 -58 77
-102 112 -205 165 -56 28 -76 33 -159 36 -81 3 -106 0 -162 -20z M11068 15711
c-116 -38 -189 -100 -251 -213 -81 -146 -117 -305 -117 -513 0 -195 29 -311
97 -386 93 -102 224 -63 422 126 219 210 342 453 328 650 -11 148 -72 249
-189 310 -64 34 -83 39 -153 42 -58 2 -95 -2 -137 -16z M12070 14869 c-118
-30 -213 -82 -290 -158 -80 -79 -129 -164 -166 -286 -36 -123 -39 -318 -6
-473 100 -462 399 -945 846 -1365 314 -294 604 -494 905 -625 267 -115 429
-154 656 -155 128 -1 161 2 230 21 243 70 413 249 460 484 46 231 -7 541 -146
848 -194 431 -587 901 -1037 1240 -299 225 -646 394 -947 461 -112 25 -150 29
-280 28 -115 0 -167 -5 -225 -20z M3900 14754 c-226 -41 -369 -86 -565 -177
-290 -134 -517 -286 -790 -529 -421 -374 -751 -837 -897 -1258 -59 -172 -72
-248 -72 -425 -1 -159 1 -175 27 -251 49 -145 140 -259 268 -335 144 -86 275
-115 477 -106 154 6 245 24 422 83 494 164 1005 545 1434 1068 271 330 467
717 520 1026 23 135 21 333 -4 439 -51 213 -191 361 -408 432 -88 29 -110 32
-242 35 -80 1 -156 0 -170 -2z M10275 14046 c-247 -49 -516 -229 -605 -405
-75 -150 -80 -286 -15 -419 108 -220 457 -437 829 -513 143 -29 330 -24 430
14 137 51 220 132 268 262 18 50 21 81 21 190 1 113 -3 142 -26 218 -60 194
-136 326 -262 452 -141 142 -282 206 -465 211 -62 2 -134 -2 -175 -10z M6220
13981 c-233 -34 -461 -155 -669 -356 -186 -181 -287 -354 -311 -539 -38 -280
135 -506 417 -545 156 -22 361 35 587 163 139 79 218 137 319 235 187 181 279
351 294 543 11 144 -27 257 -120 356 -61 64 -115 97 -199 123 -69 22 -234 32
-318 20z M8041 13810 c-183 -23 -365 -93 -459 -176 -87 -76 -114 -149 -88
-238 39 -134 261 -264 508 -297 129 -18 416 -6 518 21 170 44 341 152 377 237
17 42 17 135 -1 177 -45 108 -229 217 -438 260 -96 20 -318 28 -417 16z
M11462 12471 c-28 -10 -62 -27 -73 -37 -61 -55 -84 -179 -55 -294 48 -186 215
-420 414 -580 230 -185 452 -254 593 -182 100 50 133 142 105 294 -20 108 -49
175 -123 287 -111 168 -339 373 -505 457 -72 36 -209 74 -268 74 -19 -1 -59
-9 -88 -19z M4701 12450 c-192 -51 -451 -250 -608 -470 -84 -117 -126 -200
-148 -293 -42 -177 3 -294 127 -337 80 -28 147 -25 245 9 271 94 547 345 679
617 85 175 92 312 20 407 -62 81 -171 104 -315 67z M1060 11608 c-91 -10 -194
-63 -257 -132 -119 -130 -137 -349 -40 -500 74 -117 255 -221 456 -262 144
-30 417 -34 516 -9 93 24 161 61 186 101 69 113 11 260 -181 458 -123 126
-200 190 -296 244 -150 85 -262 114 -384 100z M15095 11603 c-259 -55 -580
-247 -826 -493 -261 -263 -289 -450 -80 -543 70 -31 185 -46 351 -47 184 0
283 11 445 50 330 79 573 214 677 375 142 219 85 481 -130 602 -124 70 -280
90 -437 56z M8193 11532 l-663 -2 0 -2053 0 -2052 -555 555 c-305 305 -559
556 -563 558 -13 4 -937 -926 -937 -943 0 -8 613 -628 1363 -1379 l1363 -1365
1370 1370 1371 1370 -93 97 c-242 251 -843 852 -853 852 -6 0 -262 -251 -568
-557 l-558 -558 0 2052 c0 1128 -3 2053 -7 2055 -5 2 -306 2 -670 0z M3193
11249 c-215 -33 -467 -177 -602 -344 -97 -120 -141 -241 -148 -407 -9 -212 49
-391 192 -583 155 -211 372 -298 579 -235 172 54 329 212 455 459 96 189 140
337 156 527 12 145 -30 316 -101 410 -39 51 -145 123 -221 151 -76 28 -213 37
-310 22z M12925 11232 c-77 -26 -139 -67 -201 -130 -96 -98 -145 -205 -165
-359 -9 -73 -8 -104 5 -180 56 -324 263 -680 512 -881 150 -121 362 -212 493
-212 62 0 153 24 204 55 171 100 275 372 238 623 -43 291 -291 695 -579 945
-70 60 -198 129 -273 146 -68 16 -178 12 -234 -7z M1020 10161 c-396 -55 -744
-485 -904 -1117 -180 -709 -112 -1459 186 -2059 69 -139 159 -265 260 -361
240 -227 487 -295 736 -202 88 33 249 148 323 230 204 227 357 550 439 928 54
244 72 391 77 638 8 310 -24 591 -102 897 -85 339 -242 634 -431 815 -181 173
-394 257 -584 231z M15201 10005 c-77 -17 -188 -69 -268 -123 -123 -85 -274
-264 -367 -436 -59 -108 -150 -327 -181 -434 -31 -108 -78 -346 -101 -517 -25
-181 -25 -576 -1 -770 86 -687 358 -1215 723 -1407 115 -60 195 -81 314 -81
114 -1 179 16 303 80 172 89 351 284 463 505 137 272 216 521 265 840 102 665
-37 1455 -333 1900 -110 165 -265 311 -408 383 -128 65 -285 88 -409 60z
M2910 8921 c-71 -23 -139 -82 -193 -168 -69 -109 -127 -350 -127 -525 0 -272
70 -515 180 -633 65 -67 119 -95 189 -95 68 0 117 26 175 92 146 167 212 472
175 805 -33 295 -168 511 -331 528 -24 2 -54 1 -68 -4z M13359 8880 c-57 -30
-136 -124 -178 -214 -77 -159 -110 -383 -92 -611 27 -341 178 -585 361 -585
156 1 295 199 346 495 25 139 15 400 -19 520 -59 209 -123 319 -225 384 -59
38 -135 42 -193 11z M2810 6925 c-75 -21 -126 -54 -186 -117 -76 -80 -89 -127
-89 -313 1 -169 15 -242 101 -503 119 -358 301 -620 501 -719 76 -37 79 -38
193 -38 111 0 118 1 185 34 47 23 91 56 137 103 113 115 142 194 141 393 -1
192 -28 306 -124 519 -200 444 -571 721 -859 641z M13180 6758 c-180 -63 -329
-218 -454 -473 -108 -220 -146 -370 -146 -583 0 -175 40 -282 138 -374 92 -86
196 -121 357 -121 106 0 179 11 285 45 142 45 316 160 411 270 72 84 105 145
141 260 30 97 32 287 4 393 -59 223 -177 414 -317 511 -89 62 -157 86 -264 91
-75 3 -101 0 -155 -19z M1720 5881 c-199 -19 -485 -98 -650 -181 -135 -68
-264 -170 -317 -252 -76 -118 -100 -206 -83 -301 40 -213 239 -357 493 -357
160 0 313 42 522 145 313 153 595 386 683 564 32 65 37 84 37 147 0 65 -3 76
-31 111 -39 49 -116 90 -201 108 -83 18 -337 26 -453 16z M14720 5765 c-8 -2
-49 -9 -90 -15 -132 -22 -223 -69 -257 -133 -11 -21 -17 -55 -16 -100 0 -130
96 -272 302 -449 246 -213 434 -297 634 -285 78 4 98 9 170 45 113 56 159 98
202 185 64 130 63 253 -1 384 -101 204 -334 326 -693 362 -95 10 -215 13 -251
6z M4100 5051 c-126 -39 -175 -133 -152 -292 6 -44 22 -106 36 -139 88 -220
352 -496 589 -617 178 -91 377 -87 450 8 38 51 48 85 48 170 1 212 -180 494
-442 689 -93 69 -256 154 -335 175 -61 16 -152 19 -194 6z M12113 5005 c-141
-38 -330 -159 -469 -301 -195 -197 -304 -405 -304 -575 1 -223 223 -292 501
-158 289 140 577 464 628 707 35 166 -4 282 -111 327 -47 19 -173 19 -245 0z
M13865 4609 c-243 -23 -527 -125 -783 -280 -471 -285 -894 -721 -1150 -1184
-101 -184 -157 -328 -209 -545 -24 -99 -27 -136 -28 -270 0 -178 15 -243 88
-385 73 -140 173 -219 352 -281 72 -25 94 -27 220 -27 228 0 431 52 690 178
192 93 310 169 514 330 252 199 485 451 681 737 351 513 482 1076 323 1392
-53 105 -90 152 -164 207 -146 108 -318 149 -534 128z M2330 4559 c-425 -56
-636 -407 -527 -878 61 -261 156 -464 346 -741 275 -401 719 -787 1162 -1010
89 -45 279 -119 379 -147 412 -115 766 -36 921 205 153 240 156 551 9 933 -41
107 -65 153 -162 317 -110 185 -218 325 -391 506 -523 549 -1232 881 -1737
815z M5662 3819 c-169 -28 -290 -120 -344 -263 -20 -53 -23 -78 -22 -196 1
-116 4 -147 27 -222 94 -308 266 -511 504 -590 58 -20 88 -23 208 -23 220 0
351 46 547 188 104 76 197 220 219 338 31 172 -64 367 -243 500 -101 74 -303
176 -435 217 -99 32 -288 63 -366 61 -23 -1 -66 -5 -95 -10z M10455 3705
c-242 -45 -436 -122 -574 -228 -76 -59 -159 -160 -199 -245 -100 -210 -11
-506 193 -642 85 -57 258 -76 395 -45 91 21 288 122 392 200 182 138 287 254
360 402 43 86 43 87 43 197 0 99 -3 117 -26 166 -35 72 -81 117 -154 150 -125
57 -279 73 -430 45z M8000 3294 c-274 -50 -461 -167 -490 -309 -13 -61 -7 -93
26 -151 46 -81 136 -138 304 -194 351 -118 842 -48 1018 145 75 82 90 161 48
250 -42 91 -175 184 -326 229 -152 45 -421 59 -580 30z M10705 2370 c-127 -40
-185 -199 -185 -509 0 -182 11 -287 46 -426 94 -379 212 -587 394 -695 117
-70 245 -88 355 -50 121 41 173 86 238 202 46 83 67 169 67 280 0 113 -20 207
-76 348 -56 140 -92 208 -199 370 -152 230 -314 396 -445 458 -60 28 -145 38
-195 22z M8035 2130 c-428 -44 -734 -123 -1053 -271 -133 -62 -205 -106 -325
-197 -292 -223 -421 -505 -352 -773 92 -363 490 -647 1112 -794 279 -66 518
-90 828 -82 732 18 1347 232 1691 588 439 455 233 1028 -479 1329 -216 91
-435 147 -727 185 -147 20 -561 28 -695 15z M5470 2063 c-81 -28 -183 -104
-310 -232 -150 -150 -211 -231 -284 -371 -72 -139 -90 -203 -89 -315 2 -195
91 -344 257 -425 90 -44 158 -55 253 -41 321 48 514 381 515 891 1 120 -4 184
-16 235 -33 140 -74 219 -131 255 -40 25 -129 26 -195 3z"/>
</g>
</svg>
